<?xml version="1.0" standalone="no"?>
<!DOCTYPE svg PUBLIC "-//W3C//DTD SVG 20010904//EN"
 "http://www.w3.org/TR/2001/REC-SVG-20010904/DTD/svg10.dtd">
<svg version="1.0" xmlns="http://www.w3.org/2000/svg"
 width="512.000000pt" height="512.000000pt" viewBox="0 0 512.000000 512.000000"
 preserveAspectRatio="xMidYMid meet">

<g transform="translate(0.000000,512.000000) scale(0.100000,-0.100000)"
fill="#000000" stroke="none">
<path d="M2245 4835 c-236 -44 -449 -156 -620 -329 -240 -241 -359 -551 -342
-886 33 -626 544 -1110 1172 -1110 320 0 606 119 831 345 130 132 226 289 282
465 42 133 56 226 56 365 -2 536 -359 995 -881 1132 -125 32 -371 41 -498 18z"/>
<path d="M3600 2499 c-162 -19 -362 -96 -501 -190 -81 -55 -198 -166 -260
-248 -65 -86 -153 -264 -183 -373 -69 -241 -51 -511 48 -740 140 -324 408
-552 763 -650 67 -18 105 -22 263 -22 170 0 193 2 285 27 117 32 258 97 359
167 87 60 211 183 273 271 66 93 140 253 170 366 34 130 42 336 19 470 -79
454 -437 822 -883 907 -106 20 -261 27 -353 15z m218 -606 c15 -11 37 -35 50
-53 20 -30 22 -45 22 -161 l0 -129 113 0 c133 0 170 -9 214 -52 59 -57 64
-146 12 -212 -35 -45 -57 -51 -199 -56 l-135 -5 -5 -135 c-5 -142 -11 -164
-56 -199 -66 -52 -155 -47 -212 12 -43 44 -52 81 -52 214 l0 113 -129 0 c-116
0 -131 2 -161 23 -77 52 -100 138 -58 211 39 67 74 80 220 84 l126 4 4 126 c4
146 17 181 84 220 48 28 121 26 162 -5z"/>
<path d="M2160 2313 c-235 -18 -509 -64 -725 -124 -650 -178 -1077 -517 -1155
-915 -7 -37 -10 -145 -8 -294 3 -231 3 -236 30 -292 34 -73 103 -142 176 -176
l57 -27 1109 -3 1109 -2 -27 32 c-231 284 -338 595 -322 933 14 302 119 573
309 797 l55 65 -51 7 c-52 6 -472 5 -557 -1z"/>
</g>
</svg>
