<?xml version="1.0" standalone="no"?>
<!DOCTYPE svg PUBLIC "-//W3C//DTD SVG 20010904//EN"
 "http://www.w3.org/TR/2001/REC-SVG-20010904/DTD/svg10.dtd">
<svg version="1.0" xmlns="http://www.w3.org/2000/svg"
 width="512.000000pt" height="512.000000pt" viewBox="0 0 512.000000 512.000000"
 preserveAspectRatio="xMidYMid meet">

<g transform="translate(0.000000,512.000000) scale(0.100000,-0.100000)"
fill="#000000" stroke="none">
<path d="M1666 5104 c-313 -57 -561 -290 -648 -609 -20 -75 -21 -103 -22 -420
-1 -330 0 -341 20 -380 49 -90 125 -139 220 -138 67 1 111 18 162 67 67 62 66
58 73 416 5 305 7 328 27 381 32 80 90 142 170 181 l67 33 1150 3 c1131 2
1151 2 1217 -18 84 -25 164 -95 205 -178 l28 -57 0 -1825 0 -1825 -28 -57
c-41 -83 -121 -153 -205 -178 -66 -20 -86 -20 -1217 -18 l-1150 3 -67 33 c-80
39 -138 101 -170 181 -21 53 -22 74 -27 421 -7 402 -5 392 -73 457 -45 44
-100 65 -169 64 -91 0 -165 -48 -213 -136 -20 -39 -21 -50 -20 -420 0 -357 2
-385 22 -460 80 -296 303 -520 596 -598 l81 -22 1220 0 1220 0 88 28 c105 33
171 65 252 122 165 117 285 302 326 499 18 87 19 172 19 1906 0 1734 -1 1819
-19 1906 -62 300 -287 538 -594 627 -71 21 -86 21 -1267 23 -1002 2 -1208 0
-1274 -12z"/>
<path d="M2546 3646 c-94 -35 -157 -122 -158 -218 -1 -105 4 -113 270 -380
l246 -248 -1198 0 c-912 0 -1209 -3 -1240 -12 -86 -26 -166 -136 -166 -228 0
-92 80 -202 166 -228 31 -9 328 -12 1240 -12 l1199 0 -242 -242 c-132 -134
-249 -259 -259 -278 -25 -47 -24 -152 0 -200 58 -112 170 -160 292 -125 58 16
64 21 516 473 310 310 463 471 479 502 30 58 32 157 5 215 -26 55 -916 945
-969 969 -53 24 -133 29 -181 12z"/>
</g>
</svg>
